<svg width="80" height="100" viewBox="0 0 248 46" fill="none" xmlns="http://www.w3.org/2000/svg">
<path d="M8.78125 45H0.25V11.5312H2.3125L5.125 14.7812C6.5 13.5312 8.05208 12.5729 9.78125 11.9062C11.5312 11.2188 13.3542 10.875 15.25 10.875C17.2917 10.875 19.2188 11.2708 21.0312 12.0625C22.8438 12.8333 24.4271 13.9062 25.7812 15.2812C27.1354 16.6354 28.1979 18.2292 28.9688 20.0625C29.7604 21.875 30.1562 23.8125 30.1562 25.875V45H21.625V25.875C21.625 25 21.4583 24.1771 21.125 23.4062C20.7917 22.6146 20.3333 21.9271 19.75 21.3438C19.1667 20.7604 18.4896 20.3021 17.7188 19.9688C16.9479 19.6354 16.125 19.4688 15.25 19.4688C14.3542 19.4688 13.5104 19.6354 12.7188 19.9688C11.9271 20.3021 11.2396 20.7604 10.6562 21.3438C10.0729 21.9271 9.61458 22.6146 9.28125 23.4062C8.94792 24.1771 8.78125 25 8.78125 25.875V45ZM49.5625 36.8125C49.8958 36.9167 50.2292 36.9896 50.5625 37.0312C50.8958 37.0521 51.2292 37.0625 51.5625 37.0625C52.3958 37.0625 53.1979 36.9479 53.9688 36.7188C54.7396 36.4896 55.4583 36.1667 56.125 35.75C56.8125 35.3125 57.4167 34.7917 57.9375 34.1875C58.4792 33.5625 58.9167 32.875 59.25 32.125L65.5 38.4062C64.7083 39.5312 63.7917 40.5417 62.75 41.4375C61.7292 42.3333 60.6146 43.0938 59.4062 43.7188C58.2188 44.3438 56.9583 44.8125 55.625 45.125C54.3125 45.4583 52.9583 45.625 51.5625 45.625C49.2083 45.625 46.9896 45.1875 44.9062 44.3125C42.8438 43.4375 41.0312 42.2188 39.4688 40.6562C37.9271 39.0938 36.7083 37.2396 35.8125 35.0938C34.9167 32.9271 34.4688 30.5521 34.4688 27.9688C34.4688 25.3229 34.9167 22.9062 35.8125 20.7188C36.7083 18.5312 37.9271 16.6667 39.4688 15.125C41.0312 13.5833 42.8438 12.3854 44.9062 11.5312C46.9896 10.6771 49.2083 10.25 51.5625 10.25C52.9583 10.25 54.3229 10.4167 55.6562 10.75C56.9896 11.0833 58.25 11.5625 59.4375 12.1875C60.6458 12.8125 61.7708 13.5833 62.8125 14.5C63.8542 15.3958 64.7708 16.4062 65.5625 17.5312L49.5625 36.8125ZM53.9375 19.2188C53.5417 19.0729 53.1458 18.9792 52.75 18.9375C52.375 18.8958 51.9792 18.875 51.5625 18.875C50.3958 18.875 49.2917 19.0938 48.25 19.5312C47.2292 19.9479 46.3333 20.5521 45.5625 21.3438C44.8125 22.1354 44.2188 23.0938 43.7812 24.2188C43.3438 25.3229 43.125 26.5729 43.125 27.9688C43.125 28.2812 43.1354 28.6354 43.1562 29.0312C43.1979 29.4271 43.25 29.8333 43.3125 30.25C43.3958 30.6458 43.4896 31.0312 43.5938 31.4062C43.6979 31.7812 43.8333 32.1146 44 32.4062L53.9375 19.2188ZM100.375 45H89.9375L83.2812 34.75L76.5625 45H66.125L78.3438 27.8438L66.125 11.3438H76.5625L83.2812 20.9375L89.9375 11.3438H100.375L88.125 27.8438L100.375 45ZM128.031 41.0938C127.344 41.7188 126.604 42.3125 125.812 42.875C125.042 43.4167 124.229 43.8958 123.375 44.3125C122.521 44.7083 121.635 45.0208 120.719 45.25C119.823 45.5 118.906 45.625 117.969 45.625C115.906 45.625 113.969 45.2604 112.156 44.5312C110.344 43.8021 108.75 42.7708 107.375 41.4375C106.021 40.0833 104.948 38.4479 104.156 36.5312C103.385 34.5938 103 32.4271 103 30.0312V11.5312H111.5V30.0312C111.5 31.1562 111.667 32.1667 112 33.0625C112.354 33.9375 112.823 34.6771 113.406 35.2812C113.99 35.8854 114.667 36.3438 115.438 36.6562C116.229 36.9688 117.073 37.125 117.969 37.125C118.844 37.125 119.667 36.9271 120.438 36.5312C121.229 36.1146 121.917 35.5729 122.5 34.9062C123.083 34.2396 123.542 33.4896 123.875 32.6562C124.208 31.8021 124.375 30.9271 124.375 30.0312V11.5312H132.906V45H130.844L128.031 41.0938ZM157.812 45H138.312V36.5H157.812C158.396 36.5 158.896 36.2917 159.312 35.875C159.729 35.4583 159.938 34.9583 159.938 34.375C159.938 33.7708 159.729 33.375 159.312 33.1875C158.896 33 158.396 32.9062 157.812 32.9062H148.938C147.458 32.9062 146.073 32.625 144.781 32.0625C143.49 31.5 142.365 30.7396 141.406 29.7812C140.448 28.8021 139.688 27.6667 139.125 26.375C138.583 25.0833 138.312 23.6979 138.312 22.2188C138.312 20.7396 138.583 19.3542 139.125 18.0625C139.688 16.7708 140.448 15.6458 141.406 14.6875C142.365 13.7292 143.49 12.9792 144.781 12.4375C146.073 11.875 147.458 11.5938 148.938 11.5938H166.219V20.0938H148.938C148.354 20.0938 147.854 20.3021 147.438 20.7188C147.021 21.1354 146.812 21.6354 146.812 22.2188C146.812 22.8229 147.021 23.3438 147.438 23.7812C147.854 24.1979 148.354 24.4062 148.938 24.4062H157.812C159.271 24.4062 160.646 24.6562 161.938 25.1562C163.229 25.6354 164.354 26.3125 165.312 27.1875C166.271 28.0625 167.031 29.1146 167.594 30.3438C168.156 31.5729 168.438 32.9167 168.438 34.375C168.438 35.8542 168.156 37.2396 167.594 38.5312C167.031 39.8021 166.271 40.9271 165.312 41.9062C164.354 42.8646 163.229 43.625 161.938 44.1875C160.646 44.7292 159.271 45 157.812 45ZM204.25 31.5625C204.25 33.4167 203.896 35.1562 203.188 36.7812C202.479 38.4062 201.51 39.8333 200.281 41.0625C199.073 42.2708 197.656 43.2292 196.031 43.9375C194.406 44.6458 192.667 45 190.812 45H172.875V36.0312H190.812C191.438 36.0312 192.021 35.9167 192.562 35.6875C193.104 35.4583 193.573 35.1458 193.969 34.75C194.385 34.3333 194.708 33.8542 194.938 33.3125C195.167 32.7708 195.281 32.1875 195.281 31.5625C195.281 30.9375 195.167 30.3542 194.938 29.8125C194.708 29.2708 194.385 28.8021 193.969 28.4062C193.573 27.9896 193.104 27.6667 192.562 27.4375C192.021 27.2083 191.438 27.0938 190.812 27.0938H178.594V18.125H190.812C191.438 18.125 192.021 18.0104 192.562 17.7812C193.104 17.5521 193.573 17.2396 193.969 16.8438C194.385 16.4271 194.708 15.9479 194.938 15.4062C195.167 14.8438 195.281 14.25 195.281 13.625C195.281 13 195.167 12.4167 194.938 11.875C194.708 11.3333 194.385 10.8646 193.969 10.4688C193.573 10.0521 193.104 9.72917 192.562 9.5C192.021 9.27083 191.438 9.15625 190.812 9.15625H172.875V0.1875H190.812C192.667 0.1875 194.406 0.541667 196.031 1.25C197.656 1.95833 199.073 2.92708 200.281 4.15625C201.51 5.36458 202.479 6.78125 203.188 8.40625C203.896 10.0312 204.25 11.7708 204.25 13.625C204.25 15.2708 203.948 16.875 203.344 18.4375C202.74 19.9792 201.885 21.3646 200.781 22.5938C201.885 23.8229 202.74 25.2188 203.344 26.7812C203.948 28.3229 204.25 29.9167 204.25 31.5625ZM247.375 22.5938C247.375 24.6562 247.104 26.6458 246.562 28.5625C246.042 30.4583 245.292 32.2396 244.312 33.9062C243.333 35.5521 242.167 37.0625 240.812 38.4375C239.458 39.7917 237.948 40.9583 236.281 41.9375C234.615 42.9167 232.823 43.6771 230.906 44.2188C229.01 44.7396 227.031 45 224.969 45H211.469V0.1875H224.969C227.031 0.1875 229.01 0.458333 230.906 1C232.823 1.52083 234.615 2.27083 236.281 3.25C237.948 4.22917 239.458 5.40625 240.812 6.78125C242.167 8.13542 243.333 9.64583 244.312 11.3125C245.292 12.9583 246.042 14.7396 246.562 16.6562C247.104 18.5521 247.375 20.5312 247.375 22.5938ZM238.406 22.5938C238.406 20.7396 238.052 19 237.344 17.375C236.656 15.75 235.698 14.3333 234.469 13.125C233.26 11.8958 231.833 10.9271 230.188 10.2188C228.562 9.51042 226.823 9.15625 224.969 9.15625H220.5V36.0312H224.969C226.823 36.0312 228.562 35.6875 230.188 35C231.833 34.2917 233.26 33.3333 234.469 32.125C235.698 30.8958 236.656 29.4688 237.344 27.8438C238.052 26.1979 238.406 24.4479 238.406 22.5938Z" fill="#B5F100"/>
</svg>
